<?xml version="1.0" encoding="UTF-8" standalone="no"?>
<!-- Generator: Adobe Illustrator 19.1.0, SVG Export Plug-In . SVG Version: 6.00 Build 0)  -->

<svg
   xmlns:dc="http://purl.org/dc/elements/1.1/"
   xmlns:cc="http://creativecommons.org/ns#"
   xmlns:rdf="http://www.w3.org/1999/02/22-rdf-syntax-ns#"
   xmlns:svg="http://www.w3.org/2000/svg"
   xmlns="http://www.w3.org/2000/svg"
   xmlns:sodipodi="http://sodipodi.sourceforge.net/DTD/sodipodi-0.dtd"
   xmlns:inkscape="http://www.inkscape.org/namespaces/inkscape"
   version="1.1"
   id="Capa_1"
   x="0px"
   y="0px"
   viewBox="0 0 332.293 332.293"
   style="enable-background:new 0 0 332.293 332.293;"
   xml:space="preserve"
   inkscape:version="0.91 r13725"
   sodipodi:docname="messenger.svg"><metadata
     id="metadata41"><rdf:RDF><cc:Work
         rdf:about=""><dc:format>image/svg+xml</dc:format><dc:type
           rdf:resource="http://purl.org/dc/dcmitype/StillImage" /></cc:Work></rdf:RDF></metadata><defs
     id="defs39" /><sodipodi:namedview
     pagecolor="#ffffff"
     bordercolor="#666666"
     borderopacity="1"
     objecttolerance="10"
     gridtolerance="10"
     guidetolerance="10"
     inkscape:pageopacity="0"
     inkscape:pageshadow="2"
     inkscape:window-width="1440"
     inkscape:window-height="806"
     id="namedview37"
     showgrid="false"
     inkscape:zoom="1.491884"
     inkscape:cx="58.302509"
     inkscape:cy="116.55726"
     inkscape:window-x="0"
     inkscape:window-y="1"
     inkscape:window-maximized="1"
     inkscape:current-layer="Capa_1" /><g
     id="g7" /><g
     id="g9" /><g
     id="g11" /><g
     id="g13" /><g
     id="g15" /><g
     id="g17" /><g
     id="g19" /><g
     id="g21" /><g
     id="g23" /><g
     id="g25" /><g
     id="g27" /><g
     id="g29" /><g
     id="g31" /><g
     id="g33" /><g
     id="g35" /><g
     transform="matrix(1.7905271,0,0,1.7089322,-326.74782,-828.71884)"
     id="messenger-icon"
     inkscape:label="Layer 1"
     style="stroke-width:5.7167228;stroke-miterlimit:4;stroke-dasharray:none"><g
       id="g4231"
       style="stroke-width:5.7167228;stroke-miterlimit:4;stroke-dasharray:none"><path
         style="fill:none;fill-opacity:1;fill-rule:evenodd;stroke:#000000;stroke-width:5.7167228;stroke-linecap:butt;stroke-linejoin:miter;stroke-opacity:1;stroke-miterlimit:4;stroke-dasharray:none"
         d="m 221.53378,496.26557 c 1.65192,-1.52738 7.54229,-1.21714 7.54229,-1.21714 l 62.41924,0.31393 68.26534,-0.13642 c 0,0 2.53952,-0.17149 3.71449,0.99915 0.91685,0.91351 1.26743,2.87362 1.26743,2.87362 l 0.15568,94.60677 c 0,0 -0.0271,2.7391 -1.3566,4.08238 -1.02974,1.04035 -3.02528,1.62546 -3.02528,1.62546 l -23.32369,0.20097 0,24.56998 -26.75967,-24.63739 -84.8896,-0.21359 c 0,0 -2.04791,-0.17605 -3.14867,-1.27316 -1.50509,-1.5001 -1.53853,-2.98848 -1.55094,-5.11344 l -0.52437,-89.81085 c 0,0 -0.43797,-5.34295 1.21396,-6.87033 z"
         id="path4246"
         inkscape:connector-curvature="0"
         sodipodi:nodetypes="ccccsccscccccsscsc" /><path
         style="fill:none;fill-rule:evenodd;stroke:#000000;stroke-width:5.7167228;stroke-linecap:butt;stroke-linejoin:miter;stroke-opacity:1;stroke-miterlimit:4;stroke-dasharray:none"
         d="m 213.65855,556.19699 c -0.61224,-0.61723 -1.81943,-0.8098 -1.81943,-0.8098 l -24.4459,-0.19875 c 0,0 -1.17715,0.0299 -1.72767,0.57259 -0.43957,0.43336 -0.60278,1.26032 -0.60278,1.26032 l -0.45157,73.83327 c 0,0 0.11036,1.04726 0.67533,1.6157 0.56422,0.56768 1.71111,0.7886 1.71111,0.7886 l 17.1809,0 0.2388,28.65663 28.65664,-28.69708 52.69571,-0.23005 c 0,0 1.70952,-0.19468 2.43363,-0.61369 3.11033,-1.7998 2.61312,-4.77257 2.61312,-4.77257 l -0.19039,-21.08944 -72.77428,0 c 0,0 -1.71496,-0.0847 -2.51743,-0.88718 -0.7917,-0.79169 -0.88718,-2.4717 -0.88718,-2.4717 l 0,-45.44329 c 0,0 -0.24819,-0.96873 -0.7886,-1.51356 z"
         id="path4248"
         inkscape:connector-curvature="0"
         sodipodi:nodetypes="cccsccscccccscccsccsc" /><ellipse
         style="fill:none;fill-opacity:1;stroke-width:5.7167228;stroke-miterlimit:4;stroke-dasharray:none"
         id="path4250"
         cx="255.76047"
         cy="540.36365"
         rx="5.7313271"
         ry="5.0149112" /><ellipse
         style="fill:none;fill-opacity:1;stroke-width:5.7167228;stroke-miterlimit:4;stroke-dasharray:none"
         id="path4252"
         cx="259.10373"
         cy="544.66217"
         rx="9.5522118"
         ry="8.11938" /><ellipse
         style="fill:none;fill-opacity:1;stroke-width:5.7167228;stroke-miterlimit:4;stroke-dasharray:none"
         id="path4254"
         cx="258.38733"
         cy="545.73676"
         rx="3.3432741"
         ry="3.4626768" /><ellipse
         style="fill:none;fill-opacity:1;stroke-width:5.7167228;stroke-miterlimit:4;stroke-dasharray:none"
         id="path4256"
         cx="331.93936"
         cy="549.67706"
         rx="7.6417694"
         ry="5.2537165" /><ellipse
         style="fill:none;fill-opacity:1;stroke-width:5.7167228;stroke-miterlimit:4;stroke-dasharray:none"
         id="path4258"
         cx="289.31262"
         cy="516.48315"
         rx="21.134268"
         ry="10.507433" /><ellipse
         style="fill:#000000;fill-opacity:1;stroke-width:5.7167228;stroke-miterlimit:4;stroke-dasharray:none"
         id="path4260"
         cx="264.53992"
         cy="547.8432"
         rx="7.9999771"
         ry="7.7611718" /><ellipse
         ry="7.7611718"
         rx="7.9999771"
         cy="547.83173"
         cx="291.57849"
         id="ellipse4304"
         style="fill:#000000;fill-opacity:1;stroke-width:5.7167228;stroke-miterlimit:4;stroke-dasharray:none" /><ellipse
         style="fill:#000000;fill-opacity:1;stroke-width:5.7167228;stroke-miterlimit:4;stroke-dasharray:none"
         id="ellipse4306"
         cx="318.79495"
         cy="547.92352"
         rx="7.9999771"
         ry="7.7611718"
         inkscape:transform-center-x="-1.2487537"
         inkscape:transform-center-y="6.2437684" /></g></g></svg>